<svg width="13" height="18" viewBox="0 0 13 18" fill="none" xmlns="http://www.w3.org/2000/svg">
<g clip-path="url(#clip0_1069_26420)">
<path d="M10.2346 0C10.914 0.000544479 11.5654 0.271866 12.0458 0.754392C12.5262 1.23692 12.7964 1.89121 12.7969 2.5736H2.56236V13.1188C2.56264 13.1318 2.56029 13.1447 2.55547 13.1567C2.55065 13.1687 2.54345 13.1797 2.5343 13.1888C2.52515 13.198 2.51425 13.2051 2.50225 13.2099C2.49026 13.2147 2.47742 13.217 2.46451 13.2167H0.0974656C0.0845785 13.217 0.0717575 13.2147 0.0597836 13.2099C0.0478098 13.2051 0.0369337 13.1979 0.027818 13.1888C0.0187023 13.1796 0.0115378 13.1687 0.00676093 13.1567C0.00198405 13.1447 -0.00030521 13.1318 3.26194e-05 13.1188V2.5736C0.000574712 1.89121 0.270707 1.23692 0.751118 0.754392C1.23153 0.271866 1.88295 0.000544479 2.56236 0L10.2346 0ZM10.2346 15.4264H3.26194e-05C0.000574712 16.1088 0.270707 16.7631 0.751118 17.2456C1.23153 17.7281 1.88295 17.9995 2.56236 18H10.2346C10.914 17.9995 11.5654 17.7281 12.0458 17.2456C12.5262 16.7631 12.7964 16.1088 12.7969 15.4264V4.86719C12.7971 4.85426 12.7948 4.84142 12.7899 4.82944C12.7851 4.81746 12.7778 4.80659 12.7687 4.79748C12.7596 4.78838 12.7487 4.78122 12.7367 4.77646C12.7247 4.77169 12.7119 4.7694 12.6991 4.76974H10.332C10.3191 4.7694 10.3063 4.7717 10.2943 4.77649C10.2824 4.78129 10.2715 4.78849 10.2624 4.79764C10.2533 4.8068 10.2461 4.81772 10.2413 4.82975C10.2365 4.84178 10.2342 4.85465 10.2346 4.8676V15.4268V15.4264Z" fill="white"/>
</g>
<defs>
<clipPath id="clip0_1069_26420">
<rect width="12.7969" height="18" fill="white"/>
</clipPath>
</defs>
</svg>
