<svg width="18" height="18" viewBox="0 0 18 18" fill="none" xmlns="http://www.w3.org/2000/svg">
<g id="Linkedin - Negative">
<path id="XMLID_802_" d="M4.18901 5.77148H0.575479C0.415105 5.77148 0.285156 5.90149 0.285156 6.06181V17.6705C0.285156 17.8309 0.415105 17.9609 0.575479 17.9609H4.18901C4.34938 17.9609 4.47933 17.8309 4.47933 17.6705V6.06181C4.47933 5.90149 4.34938 5.77148 4.18901 5.77148Z" fill="white"/>
<path id="XMLID_803_" d="M2.38448 0C1.06966 0 0 1.0685 0 2.38186C0 3.69581 1.06966 4.76472 2.38448 4.76472C3.69825 4.76472 4.76704 3.69575 4.76704 2.38186C4.7671 1.0685 3.69825 0 2.38448 0Z" fill="white"/>
<path id="XMLID_804_" d="M13.3822 5.48242C11.9308 5.48242 10.858 6.10632 10.2072 6.81523V6.06127C10.2072 5.90095 10.0773 5.77094 9.91693 5.77094H6.45634C6.29596 5.77094 6.16602 5.90095 6.16602 6.06127V17.67C6.16602 17.8304 6.29596 17.9603 6.45634 17.9603H10.062C10.2223 17.9603 10.3523 17.8304 10.3523 17.67V11.9264C10.3523 9.9909 10.878 9.23687 12.2272 9.23687C13.6966 9.23687 13.8133 10.4457 13.8133 12.0259V17.67C13.8133 17.8304 13.9433 17.9604 14.1037 17.9604H17.7106C17.871 17.9604 18.001 17.8304 18.001 17.67V11.3025C18.001 8.42449 17.4522 5.48242 13.3822 5.48242Z" fill="white"/>
</g>
</svg>
