<svg xmlns="http://www.w3.org/2000/svg" width="20" height="20" viewBox="0 0 20 20" fill="#24272C">
  <g clip-path="url(#clip0_5394_17504)">
    <path d="M1.31923 6.51653C1.47963 3.8761 4.9701 3.18215 6.15003 5.54563L8.64915 3.3973C8.73287 2.69318 8.60846 1.92648 8.66792 1.22862C8.73287 0.472092 9.45271 -0.0841587 10.2015 0.0105056L19.0298 2.04149C19.5736 2.19248 19.9437 2.71118 19.9993 3.25961V18.6907C19.9437 19.3995 19.439 19.926 18.7293 19.9996H2.16427C1.52501 19.9338 0.971043 19.4605 0.896711 18.8065V13.4951C0.722226 13.2768 0.514097 13.093 0.36778 12.8512C-0.147849 12 -0.111074 10.9681 0.413944 10.1357C-0.379452 8.91287 0.00707438 7.18544 1.31923 6.51653ZM9.84237 1.26931V18.8268H11.2484V14.0028C11.2484 13.5702 11.9612 12.906 12.4111 12.8997C13.6106 12.9521 14.9275 12.7949 16.1136 12.888C16.7224 12.9357 17.4211 13.4748 17.4211 14.1194V18.826H18.691C18.702 18.826 18.7857 18.7321 18.8076 18.7079L18.7919 3.22753C18.7505 3.16338 18.3812 3.08984 18.281 3.0648C15.5691 2.36694 12.8008 1.86311 10.0841 1.17934L9.84237 1.26852V1.26931ZM8.67027 18.8268V4.96044L6.63905 6.64092C7.72586 7.46083 8.04197 8.98328 7.27674 10.1357C8.5709 12.1275 6.71964 14.5857 4.45134 13.9833V18.8268H8.67027ZM3.62117 5.28355C3.1032 5.35474 2.59617 5.85231 2.51558 6.36554C2.45612 6.74419 2.62121 7.12833 2.23782 7.37633C2.13532 7.44283 2.01169 7.46004 1.91076 7.51794C1.22299 7.91302 0.956959 8.68599 1.35913 9.40105C1.55005 9.74059 1.81608 9.77502 1.7574 10.2554C1.72532 10.519 1.41234 10.7013 1.29654 10.9658C0.751177 12.2144 2.09228 13.373 3.25343 12.6885C3.47173 12.5594 3.54528 12.381 3.84652 12.3795C4.17827 12.3779 4.26669 12.593 4.51785 12.7276C5.75176 13.3863 7.0467 12.0149 6.3206 10.8077C6.17272 10.5621 5.93485 10.4682 5.93407 10.1365C5.93329 9.80475 6.12029 9.73434 6.28226 9.50432C6.72356 8.87688 6.55142 7.9584 5.88634 7.57035C5.68056 7.44987 5.4114 7.42484 5.27917 7.20109C5.12816 6.94447 5.22987 6.61432 5.17745 6.32642C5.04678 5.61057 4.32146 5.1881 3.62352 5.28355H3.62117ZM3.27925 13.9833C2.87629 14.031 2.47255 14.1202 2.06803 14.0224V18.729C2.06803 18.7376 2.19009 18.8268 2.20495 18.8268H3.27925V13.9833ZM16.249 18.8268V14.1984C16.249 14.1875 16.1551 14.1038 16.1309 14.0819L12.4862 14.0975C12.4659 14.11 12.4205 14.1828 12.4205 14.1976V18.826H16.249V18.8268Z" fill="#24272C"/>
    <path d="M16.4177 5.88503C15.9029 5.37259 16.5468 4.41265 17.2049 4.92196C17.8473 5.41953 17.0155 6.48118 16.4177 5.88503Z" fill="#24272C"/>
    <path d="M11.7068 7.54781C12.6285 7.39681 12.6645 8.8958 11.7404 8.7847C11.0832 8.70647 11.0754 7.65108 11.7068 7.54781Z" fill="#24272C"/>
    <path d="M14.2068 7.54781C15.1285 7.39681 15.1645 8.8958 14.2404 8.7847C13.5832 8.70647 13.5754 7.65108 14.2068 7.54781Z" fill="#24272C"/>
    <path d="M13.9181 5.8851C13.4033 5.37188 14.048 4.41272 14.7053 4.92203C15.35 5.42117 14.512 6.47734 13.9181 5.8851Z" fill="#24272C"/>
    <path d="M14.1675 10.3982C15.1932 10.1854 15.1173 11.8049 14.2152 11.6218C13.5705 11.4912 13.608 10.514 14.1675 10.3982Z" fill="#24272C"/>
    <path d="M11.822 4.77932C12.6201 4.77306 12.6053 6.03108 11.851 6.05064C11.0725 6.0702 11.0333 4.78558 11.822 4.77932Z" fill="#24272C"/>
    <path d="M17.2513 7.70809C17.752 8.21036 17.1057 9.14918 16.4633 8.67195C15.8209 8.19471 16.612 7.06656 17.2513 7.70809Z" fill="#24272C"/>
    <path d="M11.6676 10.3982C12.6934 10.1854 12.6175 11.8041 11.7154 11.6218C11.0659 11.4904 11.1176 10.5125 11.6676 10.3982Z" fill="#24272C"/>
    <path d="M16.6674 10.3991C17.5781 10.2098 17.6642 11.5554 16.8888 11.6376C16.1134 11.7197 16.0218 10.5337 16.6674 10.3991Z" fill="#24272C"/>
  </g>
  <defs>
    <clipPath id="clip0_5394_17504">
      <rect width="20" height="20" fill="#24272C"/>
    </clipPath>
  </defs>
</svg>
