<svg width="149" height="192" viewBox="0 0 149 192" fill="none" xmlns="http://www.w3.org/2000/svg">
<path d="M149 116.788C149 158.326 115.645 192 74.5 192C33.3553 192 0 158.326 0 116.788C0 93.1971 10.4115 75.1338 21.8256 63.6107C43.6897 41.5377 74.5 38.1119 74.5 0C91.544 17.2068 84.9115 37.4112 72.7262 49.674C61.7748 60.7299 37.9441 76.3017 37.9441 110.988C37.9441 149.217 74.5 155.29 74.5 178.803C74.5 178.803 117.226 153.888 117.226 118.112C117.226 90.8224 98.3693 82.5304 98.0222 82.4136C98.1379 82.6472 101.994 90.3552 101.994 101.489C101.994 112.779 93.3564 122.161 93.3564 122.161C93.3564 122.161 81.3253 109.781 81.3253 91.7178C81.3253 74.1606 90.6956 59.5231 93.8962 44.146C125.632 52.7883 149 82.0243 149 116.788Z" fill="#DDDFE5"/>
</svg>
