<svg xmlns="http://www.w3.org/2000/svg" width="19" height="20" viewBox="0 0 19 20" fill="#24272C">
  <g clip-path="url(#clip0_5433_17909)">
    <path d="M14.0098 5.22C13.9398 5.08 13.8498 4.95 13.7198 4.83C13.4798 4.62 13.1698 4.5 12.8598 4.5C12.5498 4.5 12.2398 4.62 11.9698 4.85C11.8598 4.95 11.7698 5.08 11.6998 5.22C11.6498 5.34 11.5498 5.58 11.5498 5.91V7.11H14.1598V5.91C14.1598 5.58 14.0698 5.34 14.0098 5.22ZM13.4798 6.43H12.2298V5.93C12.2298 5.69 12.3198 5.53 12.3298 5.5C12.4398 5.33 12.5898 5.25 12.7098 5.22H12.7498C12.7498 5.22 12.7998 5.2 12.8298 5.2H12.8698C12.8698 5.2 12.9298 5.2 12.9598 5.2H13.0098C13.1198 5.24 13.2698 5.32 13.3698 5.48C13.3998 5.54 13.4798 5.7 13.4798 5.91V6.41V6.43Z" fill="#24272C"/>
    <path d="M6.73978 5.22C6.66978 5.08 6.57978 4.95 6.44978 4.83C6.20978 4.62 5.89979 4.5 5.58979 4.5C5.27979 4.5 4.96978 4.62 4.69978 4.85C4.58978 4.95 4.49978 5.08 4.42978 5.22C4.37978 5.34 4.27979 5.58 4.27979 5.91V7.11H6.88978V5.91C6.88978 5.58 6.79978 5.34 6.73978 5.22ZM6.19978 6.43H4.94978V5.93C4.94978 5.71 5.01979 5.55 5.04979 5.5C5.15979 5.33 5.30979 5.25 5.41979 5.22H5.46978C5.46978 5.22 5.51979 5.2 5.54979 5.2H5.58979C5.58979 5.2 5.64978 5.2 5.67978 5.2H5.72978C5.83978 5.24 5.98979 5.31 6.08979 5.48C6.10979 5.51 6.18979 5.68 6.18979 5.91V6.41L6.19978 6.43Z" fill="#24272C"/>
    <path d="M17.84 18.86H16.65V11.59H17.6C17.84 11.59 18.07 11.47 18.21 11.28C18.35 11.09 18.39 10.84 18.31 10.61L17.54 8.27C17.44 7.96 17.16 7.75 16.83 7.75H16.64V3.84H16.97C17.43 3.84 17.81 3.46 17.81 3V0.84C17.81 0.38 17.43 0 16.97 0H1.42C0.96 0 0.58 0.38 0.58 0.84V2.99C0.58 3.45 0.96 3.83 1.42 3.83H1.74V7.74H1.49C1.16 7.74 0.87 7.96 0.78 8.27L0.07 10.62C0 10.85 0.04 11.09 0.18 11.28C0.32 11.47 0.54 11.58 0.78 11.58H1.74V18.85H0.56C0.25 18.85 0 19.1 0 19.41C0 19.74 0.25 19.99 0.56 19.99H17.83C18.14 19.99 18.39 19.74 18.39 19.43C18.39 19.1 18.14 18.85 17.83 18.85L17.84 18.86ZM1.69 2.73V1.11H16.72V2.73H1.69ZM2.85 7.75V3.84H15.53V7.75H2.85ZM15.05 10.48H14.28L14.08 8.87H14.73L15.05 10.48ZM13.5 10.48H12.7L12.6 8.87H13.3L13.5 10.48ZM10.39 10.48H9.53V8.87H10.33L10.39 10.48ZM8.77 8.87V10.48H7.88L7.92 8.87H8.76H8.77ZM7.15 8.87L7.11 10.48H6.31L6.37 8.87H7.15ZM5.6 8.87L5.54 10.48H4.77L4.93 8.87H5.61H5.6ZM4.15 8.87L3.99 10.48H3.24L3.5 8.87H4.15ZM2.47 10.48H1.28L1.77 8.87H2.73L2.47 10.48ZM11.15 18.86H2.85V17.77H11.15V18.86ZM11.15 16.66H2.85V15.57H11.15V16.66ZM11.15 13.87V14.46H2.85V11.59H11.15V13.88V13.87ZM11.16 10.48L11.1 8.87H11.82L11.92 10.48H11.15H11.16ZM15.54 18.86H12.26V11.59H15.54V18.86ZM15.52 8.87H16.57L17.1 10.48H15.84L15.52 8.87Z" fill="#24272C"/>
    <path d="M10.3199 5.22C10.2499 5.08 10.1599 4.95 10.0299 4.83C9.78986 4.62 9.47986 4.5 9.16986 4.5C8.85986 4.5 8.54986 4.62 8.27986 4.85C8.16986 4.95 8.07986 5.08 8.00986 5.22C7.95986 5.33 7.85986 5.58 7.85986 5.91V7.11H10.4699V5.91C10.4699 5.58 10.3799 5.34 10.3199 5.22ZM9.77986 6.43H8.52986V5.93C8.52986 5.71 8.59986 5.55 8.62986 5.5C8.73986 5.33 8.88986 5.25 8.99986 5.22H9.04986C9.04986 5.22 9.08986 5.2 9.10986 5.2C9.14986 5.2 9.22986 5.2 9.32986 5.23C9.36986 5.24 9.40986 5.26 9.44986 5.29C9.45986 5.29 9.47986 5.3 9.48986 5.31C9.54986 5.35 9.60986 5.41 9.65986 5.49C9.67986 5.53 9.76986 5.69 9.76986 5.92V6.42L9.77986 6.43Z" fill="#24272C"/>
  </g>
  <defs>
    <clipPath id="clip0_5433_17909">
      <rect width="18.4" height="20" fill="#24272C"/>
    </clipPath>
  </defs>
</svg>