<svg width="36" height="43" viewBox="0 0 36 43" fill="none" xmlns="http://www.w3.org/2000/svg">
<path d="M15.5821 35.0743C11.1276 34.5695 7.03466 32.376 4.14241 28.9435C1.25016 25.511 -0.222207 21.0997 0.0272145 16.614C0.276636 12.1283 2.22895 7.90821 5.48383 4.81902C8.73871 1.72983 13.0495 0.00564736 17.5323 4.67205e-06C22.0207 -0.00327167 26.3397 1.71675 29.6017 4.8065C32.8636 7.89625 34.8206 12.1209 35.0703 16.6122C35.32 21.1034 33.8435 25.5198 30.9443 28.9537C28.0451 32.3875 23.9435 34.5778 19.4826 35.0743V43H15.5821V35.0743Z" fill="#DC440A"/>
<path d="M23.9073 18.9489C23.9073 22.8431 20.794 26 16.9537 26C13.1133 26 10 22.8431 10 18.9489C10 16.7372 10.9718 15.0438 12.0371 13.9635C14.0779 11.8942 16.9537 11.573 16.9537 8C18.5445 9.61314 17.9254 11.5073 16.7881 12.6569C15.7659 13.6934 13.5416 15.1533 13.5416 18.4051C13.5416 21.9891 16.9537 22.5584 16.9537 24.7628C16.9537 24.7628 20.9416 22.427 20.9416 19.073C20.9416 16.5146 19.1816 15.7372 19.1492 15.7263C19.16 15.7482 19.5199 16.4708 19.5199 17.5146C19.5199 18.573 18.7137 19.4526 18.7137 19.4526C18.7137 19.4526 17.5907 18.292 17.5907 16.5985C17.5907 14.9526 18.4653 13.5803 18.764 12.1387C21.7262 12.9489 23.9073 15.6898 23.9073 18.9489Z" fill="white"/>
</svg>
